<?xml version="1.0" encoding="utf-8"?>
<!-- Generator: Adobe Illustrator 23.0.2, SVG Export Plug-In . SVG Version: 6.00 Build 0)  -->
<svg version="1.1" id="Layer_1" xmlns="http://www.w3.org/2000/svg" xmlns:xlink="http://www.w3.org/1999/xlink" x="0px" y="0px"
	 viewBox="0 0 190 80" style="enable-background:new 0 0 190 80;" xml:space="preserve">
<style type="text/css">
	.st0{fill:url(#SVGID_1_);}
	.st1{fill:#202E39;}
</style>
<g id="RGB_gradient_1_">
	<g>
		<g>
			<linearGradient id="SVGID_1_" gradientUnits="userSpaceOnUse" x1="136.3114" y1="40.9819" x2="180.7686" y2="29.0696">
				<stop  offset="0" style="stop-color:#202E39"/>
				<stop  offset="4.184992e-02" style="stop-color:#1E323F"/>
				<stop  offset="9.662535e-02" style="stop-color:#1A3C4F"/>
				<stop  offset="0.1586" style="stop-color:#134E6A"/>
				<stop  offset="0.2253" style="stop-color:#096690"/>
				<stop  offset="0.28" style="stop-color:#007EB4"/>
				<stop  offset="0.337" style="stop-color:#0084BC"/>
				<stop  offset="0.4258" style="stop-color:#0093D2"/>
				<stop  offset="0.48" style="stop-color:#009FE3"/>
				<stop  offset="0.5079" style="stop-color:#18A6CD"/>
				<stop  offset="0.5666" style="stop-color:#44B3A4"/>
				<stop  offset="0.6281" style="stop-color:#69BE81"/>
				<stop  offset="0.6916" style="stop-color:#88C765"/>
				<stop  offset="0.7579" style="stop-color:#A0CE4F"/>
				<stop  offset="0.828" style="stop-color:#B1D33F"/>
				<stop  offset="0.9046" style="stop-color:#BBD636"/>
				<stop  offset="1" style="stop-color:#BED733"/>
			</linearGradient>
			<path class="st0" d="M150,27.2c-1.6,0.4-2.7,1.7-3.1,3.1l-3.4,11.9l-0.9-3c-0.5-1.8-2.3-2.8-4.1-2.3c-1.8,0.5-2.8,2.3-2.3,4.1
				l2,6.8c0.5,1.8,2.3,2.8,4.1,2.3c1.1-0.3,2-1.2,2.3-2.3l3.3-11.6L151,47c0.7,2.4,3.2,3.8,5.6,3.1c1.6-0.4,2.7-1.7,3.1-3.1
				l6.5-22.5l6.1,21.3c1,3.3,4.4,5.2,7.7,4.3c3.3-1,5.2-4.4,4.3-7.7l-7.6-26.5c-1-3.3-4.4-5.2-7.7-4.3c-2.1,0.6-3.7,2.3-4.3,4.4l0,0
				L158,38.8l-2.4-8.5C154.9,27.9,152.4,26.5,150,27.2z"/>
			<path class="st1" d="M132.5,46.6v0.1c0,1.7-0.4,3.1-3.2,3.1c-2.8,0-3.2-1.4-3.2-3.1v-0.1c0-1.7,0.4-3.1,3.2-3.1
				C132.1,43.5,132.5,44.9,132.5,46.6z M124.1,68.4c-1.6,0-3.4-0.3-4.8-1.5c-2-1.7-2.2-4.3-2.2-6.6V49.7c0,0,0,0,0,0h-3.1
				c-1.6,0-2-0.3-2-2.9c0-2.6,0.4-2.9,2-2.9h3.1c0,0,0,0,0,0v-4.2c0-1.9,0.3-2.4,3.5-2.4c3.2,0,3.5,0.5,3.5,2.4v19.9
				c0,2.1,0.2,2.5,0.9,2.9c0.9,0.6,2.8,0.2,4.5-0.1c1.3-0.2,1.3,0.3,1.7,2.3c0.3,1.9,0.3,2.6-1,2.9
				C129.2,67.8,126.8,68.4,124.1,68.4z M93.2,49.8c-1.3,0.3-1.4-0.3-1.8-2.2c-0.4-1.9-0.4-2.6,0.9-3c0.4-0.1,3.6-1.2,8.4-1.2
				c4.7,0,7.1,2.5,8,4.8c0.9,2.4,0.8,3.8,0.8,7.6c0,0.9,0,8.1,0,8.9c0,1.4-0.6,2-1.7,2.5c-1,0.5-4,1.5-7.7,1.5
				c-5.9,0-10.6-1.8-10.6-7.6c0-5.8,4.1-7.7,9.8-7.7c1.3,0,2.6,0,3.8,0.2c0.1,0,0.1,0,0.1-0.1v-1.3c0-2.2-1.1-3.5-3.9-3.4
				C97.1,48.7,93.2,49.8,93.2,49.8z M100.2,63.8c1.1,0,2.1-0.2,2.8-0.5c0.1,0,0.1-0.1,0.1-0.2v-4.6c0-0.1-0.1-0.2-0.1-0.2
				c-1.2-0.2-2.1-0.2-3-0.2c-2.4,0-4,0.6-4,2.9C96,63,97.5,63.8,100.2,63.8z M84.2,66.7c-1.2,1-3.4,2-6.4,2c-3.9,0-7.7-1.3-7.7-1.3
				c-1.3-0.4-1.3-0.8-1-2.7c0.3-2,0.5-2.8,1.7-2.5c1.6,0.4,4.7,1.2,6.5,1.2c1.4,0,2.6-0.6,2.7-2c0.1-1.6-1.2-2.4-3.8-3.1
				c-3-0.8-7-2.3-7.1-7.4c-0.1-4.1,3.1-7.3,8.3-7.3c4.1,0,6.1,0.9,7.1,1.2c1.2,0.4,1.3,1,0.9,3c-0.4,1.9-0.5,2.5-1.8,2.2
				c-1.3-0.3-3.6-1.1-5.6-0.9c-1,0.1-2.2,0.6-2.2,1.8c0,1.5,1.6,1.8,3.3,2.4c2.6,0.9,4.3,1.6,5.5,2.7c1.7,1.5,2.1,3,2.2,4.8
				C86.7,63.3,85.8,65.5,84.2,66.7z M48.8,49.8c-1.3,0.3-1.4-0.3-1.8-2.2s-0.4-2.6,0.9-3c0.4-0.1,3.6-1.2,8.4-1.2
				c4.7,0,7.1,2.5,8,4.8c0.9,2.4,0.8,3.8,0.8,7.6c0,0.9,0,8.1,0,8.9c0,1.4-0.6,2-1.7,2.5c-1,0.5-4,1.5-7.7,1.5
				C49.7,68.7,45,67,45,61.1c0-5.8,4.1-7.7,9.8-7.7c1.3,0,2.6,0,3.8,0.2c0.1,0,0.1,0,0.1-0.1v-1.3c0-2.2-1.1-3.5-3.9-3.4
				C52.7,48.7,48.8,49.8,48.8,49.8z M55.8,63.8c1.1,0,2.1-0.2,2.8-0.5c0.1,0,0.1-0.1,0.1-0.2v-4.6c0-0.1-0.1-0.2-0.1-0.2
				c-1.2-0.2-2.1-0.2-3-0.2c-2.4,0-4,0.6-4,2.9C51.6,63,53.1,63.8,55.8,63.8z M37.4,68.4c-3.2,0-3.5-0.5-3.5-2.4V46.2
				c0-1.9,0.3-2.4,3.5-2.4s3.5,0.5,3.5,2.4v19.7C40.9,67.9,40.6,68.4,37.4,68.4z M28,37.1c-3,0-3.4,0.5-3.9,2.4L18.3,61l-5.7-21.4
				c-0.5-1.9-0.9-2.4-3.9-2.4c-3,0-3.5,0.5-3.1,2.4l7.6,26.5c0.7,1.9,1.9,2.4,5.1,2.4c3.2,0,4.5-0.5,5.1-2.4L31,39.5
				C31.5,37.6,30.9,37.1,28,37.1z"/>
		</g>
		<g>
			<path class="st1" d="M134.3,68v-2.3h-0.9v-0.5h2.3v0.5h-0.9V68H134.3z M136.2,68v-2.8h0.6l0.4,1l0.2,0.7h0l0.2-0.7l0.4-1h0.6V68
				h-0.5v-1.2l0.1-0.9h0l-0.6,1.7h-0.4l-0.6-1.7h0l0.1,0.9V68H136.2z"/>
		</g>
	</g>
</g>
</svg>
