<svg xmlns="http://www.w3.org/2000/svg" xmlns:xlink="http://www.w3.org/1999/xlink" width="24" height="24" viewBox="0 0 24 24">
    <defs>
        <path id="a" d="M18.75 3H5.25C4.01 3 3 4.01 3 5.25v13.5C3 19.99 4.01 21 5.25 21H12v-6.188H9.75V12H12V9.75a3.375 3.375 0 0 1 3.375-3.375h2.25v2.813H16.5c-.621 0-1.125-.059-1.125.562V12h2.813l-1.125 2.813h-1.688V21h3.375c1.24 0 2.25-1.01 2.25-2.25V5.25C21 4.01 19.99 3 18.75 3z"/>
    </defs>
    <g fill="none" fill-rule="evenodd">
        <path d="M0 0h24v24H0z"/>
        <mask id="b" fill="#fff">
            <use xlink:href="#a"/>
        </mask>
        <use fill="#fff" fill-rule="nonzero" xlink:href="#a"/>
        <g fill="#fff" mask="url(#b)">
            <path d="M0 0h24v24H0z"/>
        </g>
    </g>
</svg>
