<svg xmlns="http://www.w3.org/2000/svg" xmlns:xlink="http://www.w3.org/1999/xlink" width="24" height="24" viewBox="0 0 24 24">
    <defs>
        <path id="a" d="M5.31 3h13.38C19.96 3 21 3.94 21 5.31v13.38c0 1.37-1.04 2.31-2.31 2.31H5.31C4.04 21 3 20.06 3 18.69V5.31C3 3.94 4.04 3 5.31 3zm10.802 2a.812.812 0 0 0-.81.81v1.94c0 .446.365.81.81.81h2.035c.446 0 .81-.364.81-.81V5.81a.813.813 0 0 0-.81-.81h-2.035zm2.854 5.612H17.38c.15.49.232 1.008.232 1.544 0 2.994-2.506 5.421-5.596 5.421-3.09 0-5.595-2.427-5.595-5.42 0-.537.081-1.056.231-1.545H5v7.604c0 .393.322.715.716.715H18.25a.718.718 0 0 0 .716-.715v-7.604zm-6.949-2.154c-1.996 0-3.615 1.568-3.615 3.503s1.619 3.503 3.615 3.503c1.997 0 3.615-1.568 3.615-3.503s-1.618-3.503-3.615-3.503z"/>
    </defs>
    <g fill="none" fill-rule="evenodd">
        <path d="M0 0h24v24H0z"/>
        <mask id="b" fill="#fff">
            <use xlink:href="#a"/>
        </mask>
        <use fill="#fff" fill-rule="nonzero" xlink:href="#a"/>
        <g fill="#fff" mask="url(#b)">
            <path d="M0 0h24v24H0z"/>
        </g>
    </g>
</svg>
