<svg xmlns="http://www.w3.org/2000/svg" xmlns:xlink="http://www.w3.org/1999/xlink" width="24" height="24" viewBox="0 0 24 24">
    <defs>
        <path id="a" d="M23 5.13a8.962 8.962 0 0 1-2.591.716 4.559 4.559 0 0 0 1.983-2.514c-.874.521-1.84.899-2.867 1.104A4.485 4.485 0 0 0 16.23 3c-2.493 0-4.514 2.036-4.514 4.545 0 .356.04.703.117 1.035-3.75-.19-7.075-2-9.301-4.75-.39.671-.61 1.452-.61 2.286 0 1.577.797 2.968 2.007 3.783a4.489 4.489 0 0 1-2.045-.57v.056a4.542 4.542 0 0 0 3.62 4.457 4.54 4.54 0 0 1-1.19.16c-.29 0-.572-.03-.849-.085.575 1.807 2.241 3.121 4.215 3.157a9.013 9.013 0 0 1-5.605 1.943c-.364 0-.723-.022-1.076-.062A12.69 12.69 0 0 0 7.918 21c8.302 0 12.84-6.926 12.84-12.933l-.015-.589A9.048 9.048 0 0 0 23 5.13z"/>
    </defs>
    <g fill="none" fill-rule="evenodd">
        <path d="M0 0h24v24H0z"/>
        <mask id="b" fill="#fff">
            <use xlink:href="#a"/>
        </mask>
        <use fill="#fff" fill-rule="nonzero" xlink:href="#a"/>
        <g fill="#fff" mask="url(#b)">
            <path d="M0 0h24v24H0z"/>
        </g>
    </g>
</svg>
