<svg xmlns="http://www.w3.org/2000/svg" viewBox="0 0 131 42.1">
  <title>Viasast_white_rgb</title>
  <g id="Layer_2" data-name="Layer 2">
    <g id="Layer_1-2" data-name="Layer 1">
      <g>
        <path d="M105.8,11.7a3.3,3.3,0,0,1,4.1,2.3l1.8,6.3,4.8-16.8h0a4.6,4.6,0,0,1,8.8-.1l5.6,19.4a4.6,4.6,0,1,1-8.8,2.5L117.6,9.7l-4.7,16.5a3.3,3.3,0,0,1-6.4,0l-2.2-7.8-2.4,8.5a2.4,2.4,0,0,1-4.6,0l-1.4-5a2.4,2.4,0,1,1,4.6-1.3l.6,2.2,2.5-8.7A3.3,3.3,0,0,1,105.8,11.7ZM90.6,23.6c-2.1,0-2.3,1-2.3,2.3h0c0,1.3.3,2.3,2.3,2.3s2.3-1,2.3-2.3h0C92.9,24.6,92.7,23.6,90.6,23.6Zm.7,17.6c.9-.2,1-.7.7-2.1s-.3-1.8-1.2-1.6-2.6.5-3.3,0-.6-.6-.6-2.2V20.7c0-1.4-.3-1.8-2.6-1.8s-2.6.4-2.6,1.8v3.1H79.4c-1.2,0-1.5.2-1.5,2.1s.3,2.1,1.5,2.1h2.3v7.7c0,1.7.2,3.6,1.6,4.8a5.3,5.3,0,0,0,3.5,1.1A18.9,18.9,0,0,0,91.3,41.2ZM68.6,27.4c2.1,0,2.9.9,2.9,2.5v1H68.6c-4.2,0-7.2,1.4-7.2,5.6s3.4,5.6,7.8,5.6A14.5,14.5,0,0,0,74.8,41a1.8,1.8,0,0,0,1.2-1.8V32.6c0-2.8.1-3.8-.6-5.5s-2.4-3.5-5.8-3.5a21.1,21.1,0,0,0-6.1.9c-.9.2-.9.8-.6,2.2s.4,1.8,1.3,1.6A23.6,23.6,0,0,1,68.6,27.4Zm-2.3,9c0-1.7,1.2-2.1,2.9-2.1l2.2.2h.1V38h-.1a6.2,6.2,0,0,1-2.1.3C67.3,38.5,66.2,37.9,66.2,36.4Zm-6.8-.3a4.4,4.4,0,0,0-1.6-3.5,13.2,13.2,0,0,0-4-1.9c-1.2-.5-2.4-.7-2.4-1.8s.9-1.3,1.6-1.3a14.9,14.9,0,0,1,4.1.7c.9.2,1-.2,1.3-1.6s.3-1.9-.6-2.2a15,15,0,0,0-5.2-.9c-3.8,0-6.1,2.4-6.1,5.4s3,4.8,5.2,5.4,2.9,1.1,2.8,2.3-1,1.5-2,1.5a26.8,26.8,0,0,1-4.8-.9c-.9-.2-1,.4-1.2,1.8s-.2,1.7.7,2a19.1,19.1,0,0,0,5.6,1,7.7,7.7,0,0,0,4.7-1.5A5.3,5.3,0,0,0,59.4,36.1ZM36.1,27.4c2.1,0,2.9.9,2.9,2.5v1H36.1c-4.2,0-7.2,1.4-7.2,5.6s3.4,5.6,7.8,5.6A14.5,14.5,0,0,0,42.4,41a1.8,1.8,0,0,0,1.2-1.8V32.6c0-2.8.1-3.8-.6-5.5s-2.4-3.5-5.8-3.5a21.1,21.1,0,0,0-6.1.9c-.9.2-.9.8-.6,2.2s.4,1.8,1.3,1.6A23.6,23.6,0,0,1,36.1,27.4Zm-2.3,9c0-1.7,1.2-2.1,2.9-2.1l2.2.2H39V38h-.1a6.2,6.2,0,0,1-2.1.3C34.8,38.5,33.8,37.9,33.8,36.4ZM25.9,40V25.6c0-1.4-.3-1.8-2.6-1.8s-2.6.4-2.6,1.8V40c0,1.4.3,1.8,2.6,1.8S25.9,41.4,25.9,40ZM18.7,20.7,13.1,40c-.5,1.4-1.4,1.8-3.7,1.8S6.1,41.4,5.7,40L.1,20.7c-.3-1.4.1-1.8,2.2-1.8s2.5.4,2.8,1.8L9.4,36.4l4.2-15.7c.4-1.4.7-1.8,2.8-1.8S19,19.2,18.7,20.7Z" fill="#fff"/>
        <path d="M94.3,41.5V39.8h-.6v-.4h1.7v.4h-.6v1.7Zm1.4,0v-2h.5l.3.8.2.5h0l.2-.5.3-.8h.5v2h-.4V39.9h0l-.5,1.3h-.3L96,39.9h0v1.6Z" fill="#fff"/>
      </g>
    </g>
  </g>
</svg>
